<svg width="259" height="105" viewBox="0 0 259 105" fill="none" xmlns="http://www.w3.org/2000/svg">
<g filter="url(#filter0_d_4_2)">
<rect x="4" width="251" height="97" rx="8" fill="#282A36"/>
</g>
<path d="M125.16 46.592C125.16 43.328 125.94 40.796 127.5 38.996C129.06 37.196 131.232 36.296 134.016 36.296C136.8 36.296 138.972 37.196 140.532 38.996C142.092 40.796 142.872 43.328 142.872 46.592V52.208C142.872 55.28 142.212 57.692 140.892 59.444C139.596 61.172 137.772 62.168 135.42 62.432V63.944C135.42 64.664 135.744 65.024 136.392 65.024H139.416V67.616H135.384C134.568 67.616 133.896 67.352 133.368 66.824C132.864 66.296 132.612 65.624 132.612 64.808V62.432C130.236 62.144 128.4 61.136 127.104 59.408C125.808 57.68 125.16 55.28 125.16 52.208V46.592ZM134.016 59.696C135.96 59.696 137.412 59.036 138.372 57.716C139.356 56.372 139.848 54.464 139.848 51.992V46.808C139.848 44.504 139.356 42.644 138.372 41.228C137.412 39.812 135.96 39.104 134.016 39.104C132.072 39.104 130.608 39.812 129.624 41.228C128.664 42.644 128.184 44.504 128.184 46.808V51.992C128.184 54.464 128.664 56.372 129.624 57.716C130.608 59.036 132.072 59.696 134.016 59.696ZM163.619 62H158.435L156.275 45.44H155.843L153.683 62H148.499L145.691 44.144H148.571L150.947 60.704H151.379L153.467 44.144H158.651L160.739 60.704H161.171L163.547 44.144H166.427L163.619 62ZM175.762 38.816C175.762 38.12 176.002 37.532 176.482 37.052C176.986 36.548 177.586 36.296 178.282 36.296C178.978 36.296 179.566 36.548 180.046 37.052C180.55 37.532 180.802 38.12 180.802 38.816C180.802 39.512 180.55 40.112 180.046 40.616C179.566 41.096 178.978 41.336 178.282 41.336C177.586 41.336 176.986 41.096 176.482 40.616C176.002 40.112 175.762 39.512 175.762 38.816ZM170.65 59.408H176.914V46.736H171.298V44.144H179.722V59.408H185.554V62H170.65V59.408ZM192.261 59.408H198.741V39.392H192.477V36.8H201.549V59.408H208.029V62H192.261V59.408Z" fill="white"/>
<path d="M235 10C235 12.7614 232.761 15 230 15C227.239 15 225 12.7614 225 10C225 7.23858 227.239 5 230 5C232.761 5 235 7.23858 235 10Z" fill="#FF79C6"/>
<path d="M220.5 10C220.5 12.7614 218.261 15 215.5 15C212.739 15 210.5 12.7614 210.5 10C210.5 7.23858 212.739 5 215.5 5C218.261 5 220.5 7.23858 220.5 10Z" fill="#50FA7B"/>
<circle cx="245" cy="10" r="5" fill="#BD93F9"/>
<g clip-path="url(#clip0_4_2)">
<path d="M53.5 91C76.9721 91 96 71.9721 96 48.5C96 25.0279 76.9721 6 53.5 6C30.0279 6 11 25.0279 11 48.5C11 71.9721 30.0279 91 53.5 91Z" fill="#BD93F9"/>
<path d="M53.5 75.6732C66.7701 75.6732 77.5276 66.3241 77.5276 54.7913C77.5276 43.2586 66.7701 33.9094 53.5 33.9094C40.2299 33.9094 29.4724 43.2586 29.4724 54.7913C29.4724 66.3241 40.2299 75.6732 53.5 75.6732Z" fill="#324A5E"/>
<path d="M45.1339 75.6732H61.7992C63.0709 75.6732 64.2756 75.1377 65.1457 74.2007C69.8977 69.3818 72.9095 61.7519 72.9095 53.185C72.9095 38.5945 64.2087 26.748 53.5 26.748C42.7913 26.748 34.0905 38.5945 34.0905 53.185C34.0905 61.7519 37.1024 69.3818 41.7874 74.2677C42.7244 75.1377 43.9291 75.6732 45.1339 75.6732Z" fill="#2B3B4E"/>
<path d="M53.5 48.9685C64.3304 48.9685 73.1102 42.3762 73.1102 34.2441C73.1102 26.112 64.3304 19.5197 53.5 19.5197C42.6696 19.5197 33.8898 26.112 33.8898 34.2441C33.8898 42.3762 42.6696 48.9685 53.5 48.9685Z" fill="#324A5E"/>
<path d="M53.5 34.311C51.0905 36.7205 51.0905 40.5354 53.5 42.9449C55.9094 40.5354 55.9094 36.7205 53.5 34.311Z" fill="#FFD05B"/>
<path d="M61.063 41.874C65.2399 41.874 68.626 38.4879 68.626 34.311C68.626 30.1341 65.2399 26.748 61.063 26.748C56.8861 26.748 53.5 30.1341 53.5 34.311C53.5 38.4879 56.8861 41.874 61.063 41.874Z" fill="white"/>
<path d="M61.063 39.3977C63.8723 39.3977 66.1496 37.1203 66.1496 34.311C66.1496 31.5018 63.8723 29.2244 61.063 29.2244C58.2537 29.2244 55.9764 31.5018 55.9764 34.311C55.9764 37.1203 58.2537 39.3977 61.063 39.3977Z" fill="#FF79C6"/>
<path d="M61.063 37.189C62.6524 37.189 63.9409 35.9005 63.9409 34.311C63.9409 32.7216 62.6524 31.4331 61.063 31.4331C59.4735 31.4331 58.185 32.7216 58.185 34.311C58.185 35.9005 59.4735 37.189 61.063 37.189Z" fill="#FF2CA5"/>
<path d="M59.1221 33.6417C59.7874 33.6417 60.3268 33.1024 60.3268 32.437C60.3268 31.7717 59.7874 31.2323 59.1221 31.2323C58.4567 31.2323 57.9173 31.7717 57.9173 32.437C57.9173 33.1024 58.4567 33.6417 59.1221 33.6417Z" fill="white"/>
<path d="M60.5945 34.5788C60.9641 34.5788 61.2638 34.2791 61.2638 33.9095C61.2638 33.5398 60.9641 33.2402 60.5945 33.2402C60.2249 33.2402 59.9252 33.5398 59.9252 33.9095C59.9252 34.2791 60.2249 34.5788 60.5945 34.5788Z" fill="white"/>
<path d="M45.937 41.874C50.1139 41.874 53.5 38.4879 53.5 34.311C53.5 30.1341 50.1139 26.748 45.937 26.748C41.7601 26.748 38.374 30.1341 38.374 34.311C38.374 38.4879 41.7601 41.874 45.937 41.874Z" fill="white"/>
<path d="M45.937 39.3977C48.7463 39.3977 51.0236 37.1203 51.0236 34.311C51.0236 31.5018 48.7463 29.2244 45.937 29.2244C43.1278 29.2244 40.8504 31.5018 40.8504 34.311C40.8504 37.1203 43.1278 39.3977 45.937 39.3977Z" fill="#FF79C6"/>
<path d="M45.937 37.189C47.5264 37.189 48.8149 35.9005 48.8149 34.311C48.8149 32.7216 47.5264 31.4331 45.937 31.4331C44.3475 31.4331 43.059 32.7216 43.059 34.311C43.059 35.9005 44.3475 37.189 45.937 37.189Z" fill="#FF2CA5"/>
<path d="M43.9961 33.6417C44.6614 33.6417 45.2008 33.1024 45.2008 32.437C45.2008 31.7717 44.6614 31.2323 43.9961 31.2323C43.3307 31.2323 42.7913 31.7717 42.7913 32.437C42.7913 33.1024 43.3307 33.6417 43.9961 33.6417Z" fill="white"/>
<path d="M45.4685 34.5787C45.8381 34.5787 46.1378 34.2791 46.1378 33.9095C46.1378 33.5398 45.8381 33.2402 45.4685 33.2402C45.0989 33.2402 44.7992 33.5398 44.7992 33.9095C44.7992 34.2791 45.0989 34.5787 45.4685 34.5787Z" fill="white"/>
<path d="M57.3819 58.3385C58.0512 60.3464 59.5236 61.7519 61.2638 61.7519C63.0039 61.7519 64.4764 60.3464 65.1457 58.3385H57.3819Z" fill="#324A5E"/>
<path d="M49.6181 58.3385C50.2874 60.3464 51.7599 61.7519 53.5 61.7519C55.2402 61.7519 56.7126 60.3464 57.3819 58.3385H49.6181Z" fill="#324A5E"/>
<path d="M41.9213 58.3385C42.5906 60.3464 44.063 61.7519 45.8032 61.7519C47.5433 61.7519 49.0158 60.3464 49.685 58.3385H41.9213Z" fill="#324A5E"/>
<path d="M49.6181 65.1654C50.2874 67.1732 51.7599 68.5787 53.5 68.5787C55.2402 68.5787 56.7126 67.1732 57.3819 65.1654H49.6181Z" fill="#324A5E"/>
<path d="M53.5 61.7519C54.1693 63.7598 55.6417 65.1653 57.3819 65.1653C59.1221 65.1653 60.5945 63.7598 61.2638 61.7519H53.5Z" fill="#324A5E"/>
<path d="M45.8032 61.7519C46.4724 63.7598 47.9449 65.1653 49.685 65.1653C51.4252 65.1653 52.8976 63.7598 53.5669 61.7519H45.8032Z" fill="#324A5E"/>
<path d="M62.7362 20.6575C59.2559 21.7283 55.8425 22.2638 52.8307 22.1969C55.5748 25.4094 60.059 26.815 64.2756 25.4764C68.559 24.1378 71.37 20.3898 71.7716 16.1732C69.2283 18.0472 66.2165 19.5866 62.7362 20.6575Z" fill="#324A5E"/>
<path d="M44.2638 20.6575C47.7441 21.7283 51.1575 22.2638 54.1693 22.1969C51.4252 25.4094 46.9409 26.815 42.7244 25.4764C38.4409 24.1378 35.6299 20.3898 35.2283 16.1732C37.7717 18.0472 40.7835 19.5866 44.2638 20.6575Z" fill="#324A5E"/>
<path d="M59.122 80.8268C60.4606 80.8268 61.5984 79.689 61.5984 78.3504V74.8031C61.5984 73.4646 60.4606 72.3268 59.122 72.3268C57.7835 72.3268 56.6457 73.4646 56.6457 74.8031V78.3504C56.6457 79.689 57.7835 80.8268 59.122 80.8268Z" fill="white"/>
<path d="M47.878 80.8268C49.2166 80.8268 50.3544 79.689 50.3544 78.3504V74.8032C50.3544 73.4646 49.2166 72.3268 47.878 72.3268C46.5394 72.3268 45.4016 73.4646 45.4016 74.8032V78.3504C45.4016 79.689 46.4725 80.8268 47.878 80.8268Z" fill="white"/>
</g>
<defs>
<filter id="filter0_d_4_2" x="0" y="0" width="259" height="105" filterUnits="userSpaceOnUse" color-interpolation-filters="sRGB">
<feFlood flood-opacity="0" result="BackgroundImageFix"/>
<feColorMatrix in="SourceAlpha" type="matrix" values="0 0 0 0 0 0 0 0 0 0 0 0 0 0 0 0 0 0 127 0" result="hardAlpha"/>
<feOffset dy="4"/>
<feGaussianBlur stdDeviation="2"/>
<feComposite in2="hardAlpha" operator="out"/>
<feColorMatrix type="matrix" values="0 0 0 0 0 0 0 0 0 0 0 0 0 0 0 0 0 0 0.25 0"/>
<feBlend mode="normal" in2="BackgroundImageFix" result="effect1_dropShadow_4_2"/>
<feBlend mode="normal" in="SourceGraphic" in2="effect1_dropShadow_4_2" result="shape"/>
</filter>
<clipPath id="clip0_4_2">
<rect width="85" height="85" fill="white" transform="translate(11 6)"/>
</clipPath>
</defs>
</svg>
