<svg width="178" height="146" viewBox="0 0 178 146" fill="none" xmlns="http://www.w3.org/2000/svg">
<path d="M54 100C81.6142 100 104 77.6142 104 50C104 22.3858 81.6142 0 54 0C26.3858 0 4 22.3858 4 50C4 77.6142 26.3858 100 54 100Z" fill="#BD93F9"/>
<g filter="url(#filter0_d_5_2)">
<rect x="4" y="82" width="170" height="56" rx="8" fill="#282A36"/>
</g>
<path d="M154 92C154 94.7614 151.761 97 149 97C146.239 97 144 94.7614 144 92C144 89.2386 146.239 87 149 87C151.761 87 154 89.2386 154 92Z" fill="#FF79C6"/>
<path d="M139.5 92C139.5 94.7614 137.261 97 134.5 97C131.739 97 129.5 94.7614 129.5 92C129.5 89.2386 131.739 87 134.5 87C137.261 87 139.5 89.2386 139.5 92Z" fill="#50FA7B"/>
<circle cx="164" cy="92" r="5" fill="#BD93F9"/>
<path d="M54 81.9685C69.6119 81.9685 82.2678 70.9695 82.2678 57.4016C82.2678 43.8336 69.6119 32.8346 54 32.8346C38.3882 32.8346 25.7322 43.8336 25.7322 57.4016C25.7322 70.9695 38.3882 81.9685 54 81.9685Z" fill="#324A5E"/>
<path d="M44.1575 81.9684H63.7638C65.2599 81.9684 66.6772 81.3385 67.7008 80.2361C73.2914 74.5668 76.8347 65.5905 76.8347 55.5117C76.8347 38.3464 66.5985 24.4094 54 24.4094C41.4016 24.4094 31.1653 38.3464 31.1653 55.5117C31.1653 65.5905 34.7086 74.5668 40.2205 80.3149C41.3228 81.3385 42.7402 81.9684 44.1575 81.9684Z" fill="#2B3B4E"/>
<path d="M54 50.5511C66.7416 50.5511 77.0708 42.7955 77.0708 33.2283C77.0708 23.6612 66.7416 15.9055 54 15.9055C41.2583 15.9055 30.9291 23.6612 30.9291 33.2283C30.9291 42.7955 41.2583 50.5511 54 50.5511Z" fill="#324A5E"/>
<path d="M54 33.3071C51.1653 36.1417 51.1653 40.6299 54 43.4645C56.8346 40.6299 56.8346 36.1417 54 33.3071Z" fill="#FFD05B"/>
<path d="M62.8976 42.2047C67.8117 42.2047 71.7953 38.2211 71.7953 33.307C71.7953 28.393 67.8117 24.4094 62.8976 24.4094C57.9836 24.4094 54 28.393 54 33.307C54 38.2211 57.9836 42.2047 62.8976 42.2047Z" fill="white"/>
<path d="M62.8977 39.2914C66.2027 39.2914 68.8819 36.6121 68.8819 33.3071C68.8819 30.0021 66.2027 27.3229 62.8977 27.3229C59.5927 27.3229 56.9134 30.0021 56.9134 33.3071C56.9134 36.6121 59.5927 39.2914 62.8977 39.2914Z" fill="#FF79C6"/>
<path d="M62.8977 36.6929C64.7676 36.6929 66.2835 35.177 66.2835 33.3071C66.2835 31.4371 64.7676 29.9212 62.8977 29.9212C61.0277 29.9212 59.5118 31.4371 59.5118 33.3071C59.5118 35.177 61.0277 36.6929 62.8977 36.6929Z" fill="#FF2CA5"/>
<path d="M60.6142 32.5197C61.3969 32.5197 62.0315 31.8851 62.0315 31.1024C62.0315 30.3196 61.3969 29.685 60.6142 29.685C59.8314 29.685 59.1969 30.3196 59.1969 31.1024C59.1969 31.8851 59.8314 32.5197 60.6142 32.5197Z" fill="white"/>
<path d="M62.3465 33.622C62.7814 33.622 63.1339 33.2695 63.1339 32.8346C63.1339 32.3998 62.7814 32.0472 62.3465 32.0472C61.9116 32.0472 61.5591 32.3998 61.5591 32.8346C61.5591 33.2695 61.9116 33.622 62.3465 33.622Z" fill="white"/>
<path d="M45.1024 42.2047C50.0164 42.2047 54 38.2211 54 33.307C54 28.393 50.0164 24.4094 45.1024 24.4094C40.1883 24.4094 36.2047 28.393 36.2047 33.307C36.2047 38.2211 40.1883 42.2047 45.1024 42.2047Z" fill="white"/>
<path d="M45.1024 39.2914C48.4074 39.2914 51.0866 36.6121 51.0866 33.3071C51.0866 30.0021 48.4074 27.3229 45.1024 27.3229C41.7974 27.3229 39.1181 30.0021 39.1181 33.3071C39.1181 36.6121 41.7974 39.2914 45.1024 39.2914Z" fill="#FF79C6"/>
<path d="M45.1023 36.6929C46.9722 36.6929 48.4881 35.177 48.4881 33.3071C48.4881 31.4371 46.9722 29.9212 45.1023 29.9212C43.2324 29.9212 41.7165 31.4371 41.7165 33.3071C41.7165 35.177 43.2324 36.6929 45.1023 36.6929Z" fill="#FF2CA5"/>
<path d="M42.8189 32.5197C43.6017 32.5197 44.2362 31.8851 44.2362 31.1023C44.2362 30.3196 43.6017 29.685 42.8189 29.685C42.0361 29.685 41.4016 30.3196 41.4016 31.1023C41.4016 31.8851 42.0361 32.5197 42.8189 32.5197Z" fill="white"/>
<path d="M44.5512 33.622C44.9861 33.622 45.3386 33.2695 45.3386 32.8346C45.3386 32.3998 44.9861 32.0472 44.5512 32.0472C44.1163 32.0472 43.7638 32.3998 43.7638 32.8346C43.7638 33.2695 44.1163 33.622 44.5512 33.622Z" fill="white"/>
<path d="M58.5669 61.5747C59.3543 63.937 61.0866 65.5905 63.1338 65.5905C65.1811 65.5905 66.9133 63.937 67.7008 61.5747H58.5669Z" fill="#324A5E"/>
<path d="M49.4331 61.5747C50.2205 63.937 51.9528 65.5905 54 65.5905C56.0473 65.5905 57.7795 63.937 58.5669 61.5747H49.4331Z" fill="#324A5E"/>
<path d="M40.378 61.5747C41.1654 63.937 42.8976 65.5905 44.9449 65.5905C46.9921 65.5905 48.7244 63.937 49.5118 61.5747H40.378Z" fill="#324A5E"/>
<path d="M49.4331 69.6063C50.2205 71.9685 51.9528 73.622 54 73.622C56.0473 73.622 57.7795 71.9685 58.5669 69.6063H49.4331Z" fill="#324A5E"/>
<path d="M54 65.5906C54.7874 67.9528 56.5197 69.6063 58.5669 69.6063C60.6142 69.6063 62.3465 67.9528 63.1339 65.5906H54Z" fill="#324A5E"/>
<path d="M44.9449 65.5906C45.7323 67.9528 47.4646 69.6063 49.5118 69.6063C51.5591 69.6063 53.2913 67.9528 54.0787 65.5906H44.9449Z" fill="#324A5E"/>
<path d="M64.8661 17.2441C60.7716 18.5039 56.7559 19.1339 53.2125 19.0551C56.4409 22.8346 61.7165 24.4882 66.6771 22.9134C71.7165 21.3386 75.0236 16.9291 75.496 11.9685C72.5039 14.1732 68.9606 15.9843 64.8661 17.2441Z" fill="#324A5E"/>
<path d="M43.1339 17.2441C47.2283 18.5039 51.2441 19.1339 54.7874 19.0551C51.5591 22.8346 46.2835 24.4882 41.3228 22.9134C36.2835 21.3386 32.9764 16.9291 32.5039 11.9685C35.4961 14.1732 39.0394 15.9842 43.1339 17.2441Z" fill="#324A5E"/>
<path d="M60.6142 88.0315C62.189 88.0315 63.5276 86.6929 63.5276 85.1181V80.9449C63.5276 79.3701 62.189 78.0315 60.6142 78.0315C59.0394 78.0315 57.7008 79.3701 57.7008 80.9449V85.1181C57.7008 86.6929 59.0394 88.0315 60.6142 88.0315Z" fill="white"/>
<path d="M47.3859 88.0318C48.9607 88.0318 50.2993 86.6932 50.2993 85.1184V80.9452C50.2993 79.3704 48.9607 78.0318 47.3859 78.0318C45.811 78.0318 44.4725 79.3704 44.4725 80.9452V85.1184C44.4725 86.6932 45.7323 88.0318 47.3859 88.0318Z" fill="white"/>
<path d="M43.932 106.316C45.036 106.316 45.918 106.73 46.578 107.558L46.704 106.514H48V119.816L46.488 119.636V114.812C45.816 115.736 44.922 116.198 43.806 116.198C41.478 116.198 40.314 114.554 40.314 111.266C40.314 109.802 40.632 108.614 41.268 107.702C41.904 106.778 42.792 106.316 43.932 106.316ZM44.31 107.54C42.738 107.54 41.952 108.782 41.952 111.266C41.952 112.502 42.132 113.426 42.492 114.038C42.852 114.638 43.398 114.938 44.13 114.938C44.622 114.938 45.066 114.806 45.462 114.542C45.858 114.266 46.2 113.912 46.488 113.48V108.764C46.236 108.38 45.918 108.08 45.534 107.864C45.162 107.648 44.754 107.54 44.31 107.54ZM56.489 116L55.247 109.052L53.915 116H51.827L50.117 106.514H51.647L52.871 115.064L54.383 107.72H56.165L57.587 115.064L58.811 106.514H60.269L58.631 116H56.489ZM65.9859 102.086C66.3219 102.086 66.5919 102.188 66.7959 102.392C66.9999 102.584 67.1019 102.836 67.1019 103.148C67.1019 103.46 66.9999 103.718 66.7959 103.922C66.5919 104.114 66.3219 104.21 65.9859 104.21C65.6619 104.21 65.3979 104.114 65.1939 103.922C65.0019 103.718 64.9059 103.46 64.9059 103.148C64.9059 102.836 65.0019 102.584 65.1939 102.392C65.3979 102.188 65.6619 102.086 65.9859 102.086ZM67.1919 114.794H69.8559V116H62.7639V114.794H65.6799V107.72H62.8539V106.514H67.1919V114.794ZM76.8869 113.66C76.8869 114.512 77.4089 114.938 78.4529 114.938C78.9449 114.938 79.4729 114.83 80.0369 114.614L80.4329 115.712C79.8329 116.036 79.0829 116.198 78.1829 116.198C77.3309 116.198 76.6469 115.964 76.1309 115.496C75.6269 115.028 75.3749 114.392 75.3749 113.588V103.904H72.4589V102.698H76.8869V113.66Z" fill="white"/>
<path d="M29.234 109.592V111.14L22.394 115.406L21.584 114.29L27.938 110.366L21.584 106.46L22.322 105.308L29.234 109.592Z" fill="#BD93F9"/>
<defs>
<filter id="filter0_d_5_2" x="0" y="82" width="178" height="64" filterUnits="userSpaceOnUse" color-interpolation-filters="sRGB">
<feFlood flood-opacity="0" result="BackgroundImageFix"/>
<feColorMatrix in="SourceAlpha" type="matrix" values="0 0 0 0 0 0 0 0 0 0 0 0 0 0 0 0 0 0 127 0" result="hardAlpha"/>
<feOffset dy="4"/>
<feGaussianBlur stdDeviation="2"/>
<feComposite in2="hardAlpha" operator="out"/>
<feColorMatrix type="matrix" values="0 0 0 0 0 0 0 0 0 0 0 0 0 0 0 0 0 0 0.25 0"/>
<feBlend mode="normal" in2="BackgroundImageFix" result="effect1_dropShadow_5_2"/>
<feBlend mode="normal" in="SourceGraphic" in2="effect1_dropShadow_5_2" result="shape"/>
</filter>
</defs>
</svg>
